<svg xmlns="http://www.w3.org/2000/svg" width="25.738" height="28.826" viewBox="0 0 25.738 28.826"><defs><style>.a{fill:#fff;}</style></defs><g transform="translate(0 0)"><path class="a" d="M23.656,20.121a2.845,2.845,0,0,1,1.27.731h0a2.746,2.746,0,0,1,0,3.9,2.715,2.715,0,0,1-1.95.813H16.942a4.175,4.175,0,0,1-8.146,0H2.763a2.715,2.715,0,0,1-1.95-.813,2.746,2.746,0,0,1,0-3.9,2.845,2.845,0,0,1,1.27-.731A25.436,25.436,0,0,0,2.854,16.7,28.966,28.966,0,0,0,3.26,12.27a9.573,9.573,0,0,1,2.824-6.8A9.76,9.76,0,0,1,8.725,3.6a4.187,4.187,0,0,1,8.288,0,9.76,9.76,0,0,1,2.641,1.879,9.573,9.573,0,0,1,2.824,6.8,28.966,28.966,0,0,0,.406,4.429A25.436,25.436,0,0,0,23.656,20.121ZM8.989,11.8a.924.924,0,0,1-1.849,0,5.271,5.271,0,0,1,5.272-5.261.919.919,0,0,1,0,1.838A3.433,3.433,0,0,0,8.989,11.8Zm1.96-8.948a9.172,9.172,0,0,1,3.839,0,2.133,2.133,0,0,0-.264-.335,2.354,2.354,0,0,0-3.311,0A2.133,2.133,0,0,0,10.949,2.854Zm4.073,22.711H10.716a2.64,2.64,0,0,0,.5.741,2.354,2.354,0,0,0,3.311,0A2.64,2.64,0,0,0,15.022,25.566Zm8.6-3.413a.889.889,0,0,0-.65-.274h0a.915.915,0,0,1-.863-.609A24.734,24.734,0,0,1,21.066,17a30.732,30.732,0,0,1-.427-4.733A7.757,7.757,0,0,0,7.384,6.785,7.7,7.7,0,0,0,5.1,12.27,30.732,30.732,0,0,1,4.672,17a25.244,25.244,0,0,1-1.016,4.185.918.918,0,0,1-.894.691.949.949,0,0,0-.65.274.908.908,0,0,0,0,1.3.949.949,0,0,0,.65.274H22.976a.949.949,0,0,0,.65-.274.908.908,0,0,0,0-1.3h0Z" transform="translate(0 0)"/></g></svg>