<svg xmlns="http://www.w3.org/2000/svg" width="20.419" height="23" viewBox="0 0 20.419 23"><defs><style>.a{fill:#5b5b5b;}</style></defs><rect class="a" width="1.651" height="9.091" transform="translate(7.115 8.736)"/><rect class="a" width="1.651" height="9.091" transform="translate(11.644 8.736)"/><path class="a" d="M24.975,8.2h-3.72a2.2,2.2,0,0,0-2.2,2.2v1.357H13.735a.825.825,0,1,0,0,1.651H15.2L16,27.821A3.577,3.577,0,0,0,19.58,31.2h7.08a3.577,3.577,0,0,0,3.577-3.379l.8-14.412H32.5a.825.825,0,1,0,0-1.651H27.177V10.4A2.2,2.2,0,0,0,24.975,8.2Zm-4.268,2.2a.55.55,0,0,1,.55-.55h3.717a.55.55,0,0,1,.55.55v1.357H20.705Zm8.67,3.007-.8,14.324a1.926,1.926,0,0,1-1.926,1.819H19.571a1.926,1.926,0,0,1-1.926-1.819l-.792-14.324Z" transform="translate(-12.91 -8.2)"/></svg>