<svg xmlns="http://www.w3.org/2000/svg" width="20.992" height="20.991" viewBox="0 0 20.992 20.991"><defs><style>.a{fill:#5b5b5b;}</style></defs><path class="a" d="M25.643,9.986a.787.787,0,0,0-.467.23L11.532,23.86a.787.787,0,0,0-.213.377l-1.312,5.772a.787.787,0,0,0,.943.943l5.772-1.312a.787.787,0,0,0,.385-.213L30.751,15.783a.787.787,0,0,0,0-1.107l-4.46-4.46A.787.787,0,0,0,25.643,9.986Zm.09,1.894,3.345,3.354L16.55,27.763,13.2,24.417ZM12.54,25.975l2.443,2.443-3.157.722Z" transform="translate(-9.987 -9.981)"/></svg>