<svg xmlns="http://www.w3.org/2000/svg" width="33.803" height="25.116" viewBox="0 0 33.803 25.116"><defs><style>.a{fill:#fff;}</style></defs><g transform="translate(-49.4 -27.5)"><path class="a" d="M81.171,31.561H51.43a2.022,2.022,0,0,1-2.03-2.03h0a2.022,2.022,0,0,1,2.03-2.03H81.171a2.022,2.022,0,0,1,2.03,2.03h0A2,2,0,0,1,81.171,31.561Z" transform="translate(0 0)"/><path class="a" d="M65.831,59.761H51.43a2.022,2.022,0,0,1-2.03-2.03h0a2.022,2.022,0,0,1,2.03-2.03h14.4a2.022,2.022,0,0,1,2.03,2.03h0A2,2,0,0,1,65.831,59.761Z" transform="translate(0 -17.597)"/><path class="a" d="M73.351,87.561H51.43a2.022,2.022,0,0,1-2.03-2.03h0a2.022,2.022,0,0,1,2.03-2.03H73.313a2.022,2.022,0,0,1,2.03,2.03h0A1.967,1.967,0,0,1,73.351,87.561Z" transform="translate(0 -34.945)"/></g></svg>