<svg xmlns="http://www.w3.org/2000/svg" width="43" height="41" viewBox="0 0 43 41"><defs><style>.a,.c{fill:none;}.b{fill:#707070;}.c{stroke:#000;stroke-linecap:round;stroke-linejoin:round;}.d{fill:#fff;}</style></defs><g transform="translate(-344 -129)"><g transform="translate(336.729 124)"><g transform="translate(7.271 5)"><path class="a" d="M47.55,26.678a.334.334,0,0,0-.091-.029.483.483,0,0,0-.378.123l-.007.008v0l0,0c0-.008,0-.015,0-.023a8.272,8.272,0,0,0-1.7-3.592A1.921,1.921,0,0,0,44.981,23c-.017.268.289.675.321,1.072A7.067,7.067,0,0,0,42.408,23c-.282-.01-.587-.008-.9,0a10.12,10.12,0,0,1-6.108-.137c-3.647-.338-4.226,3.451-4.27,3.885,0,.01,0,.021,0,.031h0a.489.489,0,0,0-.389-.131.379.379,0,0,0-.155.067.859.859,0,0,0-.269.431c-.036.51-.059,1.025-.067,1.558.007.05.012.1.021.148A3.393,3.393,0,0,0,31,30.56a.554.554,0,0,0,.47.2.393.393,0,0,0,.2-.106,12.653,12.653,0,0,0,3.987,6.024A5.25,5.25,0,0,0,42.6,36.63a12.715,12.715,0,0,0,3.918-5.971.393.393,0,0,0,.2.106.5.5,0,0,0,.4-.144,3.2,3.2,0,0,0,.8-1.768C48.119,27.793,47.949,26.864,47.55,26.678Z" transform="translate(-19.78 -14.715)"/><path class="b" d="M46.035,68.117c-2.208-7.6-6.287-7.856-7.165-8.061-1.728-.4-3.821-.232-4.938-.581-.2,1.635-3.343,2.935-7.2,2.935s-7-1.3-7.2-2.935c-1.117.349-3.209.176-4.938.581-.878.205-4.957.466-7.164,8.061a4.151,4.151,0,0,0,.293,3.072c1.808,3.419,11.318,4.472,19.005,4.47s17.2-1.051,19.005-4.47A4.15,4.15,0,0,0,46.035,68.117Z" transform="translate(-7.271 -34.659)"/><line class="c" transform="translate(11.347 12.065)"/><path class="b" d="M28,21.733A16.275,16.275,0,0,0,31.7,27.6a9.12,9.12,0,0,0,2.964,2,5.991,5.991,0,0,0,4.561,0,9.2,9.2,0,0,0,3.059-2.092,16.368,16.368,0,0,0,3.606-5.794c.613-.18,1.256-1.329,1.518-2.8.285-1.593.016-2.982-.6-3.213.022-.389.036-.782.036-1.185-.015-5.772-3.4-9.128-8.735-9.486-4.652-.312-8.157,1.536-9.754,4.609a9.992,9.992,0,0,0-.961,3.732,9.557,9.557,0,0,0-.284,2.278h.017c0,.006,0,.012,0,.018l-.034,0c-.681.118-.99,1.57-.692,3.243C26.67,20.455,27.363,21.643,28,21.733Zm17.768-2.595a3.2,3.2,0,0,1-.8,1.768.5.5,0,0,1-.4.144.392.392,0,0,1-.2-.106,12.712,12.712,0,0,1-3.918,5.971,5.25,5.25,0,0,1-6.941.054,12.655,12.655,0,0,1-3.987-6.024.4.4,0,0,1-.2.106.553.553,0,0,1-.47-.2,3.389,3.389,0,0,1-.735-1.707c-.009-.05-.014-.1-.021-.148.008-.532.031-1.048.067-1.558A.859.859,0,0,1,28.425,17a.371.371,0,0,1,.155-.067.49.49,0,0,1,.389.131h0c0-.01,0-.021,0-.031.045-.434.623-4.223,4.27-3.885a10.12,10.12,0,0,0,6.108.137c.313-.007.617-.009.9,0a7.063,7.063,0,0,1,2.894,1.072c-.032-.4-.338-.8-.321-1.072a1.921,1.921,0,0,1,.384.164,8.272,8.272,0,0,1,1.7,3.592c0,.008,0,.015,0,.023l0,0v0l.007-.008a.484.484,0,0,1,.378-.123.369.369,0,0,1,.091.029C45.79,17.149,45.961,18.078,45.771,19.138Z" transform="translate(-17.622 -5)"/></g></g><g transform="translate(404.842 121)"><g transform="translate(1 1)"><circle class="d" cx="6" cy="6" r="6" transform="translate(-30.842 35)"/><path class="b" d="M7,13A6,6,0,1,0,1,7,5.992,5.992,0,0,0,7,13ZM7,1.8A5.2,5.2,0,1,1,1.8,7,5.19,5.19,0,0,1,7,1.8Z" transform="translate(-31.842 34)"/><path class="b" d="M10.372,12.6H11.86v1.488a.372.372,0,1,0,.744,0V12.6h1.488a.372.372,0,1,0,0-.744H12.6V10.372a.372.372,0,1,0-.744,0V11.86H10.372a.372.372,0,1,0,0,.744Z" transform="translate(-36.842 29)"/></g></g></g></svg>