<svg xmlns="http://www.w3.org/2000/svg" width="27.546" height="21.116" viewBox="0 0 27.546 21.116"><defs><style>.a{fill:#8f8f8f;}</style></defs><g transform="translate(-2.5 -13.5)"><g transform="translate(2.5 13.5)"><circle class="a" cx="1.246" cy="1.246" r="1.246" transform="translate(12.397 3.852)"/><circle class="a" cx="1.246" cy="1.246" r="1.246" transform="translate(5.769 7.617) rotate(-45)"/><circle class="a" cx="1.246" cy="1.246" r="1.246" transform="translate(3.737 12.484)"/><circle class="a" cx="1.246" cy="1.246" r="1.246" transform="translate(21.029 12.513)"/><path class="a" d="M47.939,37.748l-6.807,4.229A2.854,2.854,0,0,0,39.8,44.41a2.812,2.812,0,0,0,2.839,2.781h0a2.8,2.8,0,0,0,2.4-1.39l4.084-6.894A.847.847,0,0,0,47.939,37.748Z" transform="translate(-28.996 -30.622)"/><path class="a" d="M16.259,13.5A13.771,13.771,0,0,0,2.5,27.259a13.48,13.48,0,0,0,1.8,6.778,1.143,1.143,0,0,0,1.014.579H27.237a1.168,1.168,0,0,0,1.014-.579A13.744,13.744,0,0,0,16.259,13.5ZM26.513,32.3H6a11.413,11.413,0,1,1,21.666-5.04A11.584,11.584,0,0,1,26.513,32.3Z" transform="translate(-2.5 -13.5)"/></g></g></svg>