<svg xmlns="http://www.w3.org/2000/svg" width="23" height="23" viewBox="0 0 23 23"><defs><style>.a{fill:#013974;}</style></defs><g transform="translate(-4 -4)"><g transform="translate(4 14.885)"><path class="a" d="M26.042,27.473H4.958A.905.905,0,0,1,4,26.515a11.181,11.181,0,0,1,3.642-8.338A11.51,11.51,0,0,1,12.721,15.4a.842.842,0,0,1,.671.1,4.872,4.872,0,0,0,4.312,0,1.631,1.631,0,0,1,.671-.1A11.48,11.48,0,0,1,27,26.515.905.905,0,0,1,26.042,27.473ZM5.917,25.557H25.083a9.67,9.67,0,0,0-6.8-8.242,6.549,6.549,0,0,1-5.367,0,9.457,9.457,0,0,0-3.929,2.2A9.938,9.938,0,0,0,5.917,25.557Z" transform="translate(-4 -15.359)"/></g><g transform="translate(8.792 4)"><path class="a" d="M15.708,17.417a6.708,6.708,0,1,1,6.708-6.708A6.667,6.667,0,0,1,15.708,17.417Zm0-11.5A4.792,4.792,0,1,0,20.5,10.708,4.745,4.745,0,0,0,15.708,5.917Z" transform="translate(-9 -4)"/></g><path class="a" d="M15.958,24.667h0A.905.905,0,0,1,15,23.708v-5.75A.96.96,0,0,1,15.958,17h0a.96.96,0,0,1,.958.958v5.75A.905.905,0,0,1,15.958,24.667Z" transform="translate(-0.458 -0.542)"/></g></svg>