<svg xmlns="http://www.w3.org/2000/svg" width="23" height="25.38" viewBox="0 0 23 25.38"><defs><style>.a{fill:#8f8f8f;}</style></defs><g transform="translate(-7 -2.5)"><path class="a" d="M28.128,5.87h0a16.435,16.435,0,0,1-8.291-2.888,2.061,2.061,0,0,0-2.648,0A16.757,16.757,0,0,1,8.872,5.87,2.064,2.064,0,0,0,7,7.929c0,14.977,10.243,19.6,10.671,19.791a2.222,2.222,0,0,0,1.658,0C19.757,27.533,30,22.906,30,7.929A2.064,2.064,0,0,0,28.128,5.87ZM18.473,25.9a14.27,14.27,0,0,1-4.012-2.969l.267-2.327a2.541,2.541,0,0,1,2.514-2.247H19.73a2.522,2.522,0,0,1,2.514,2.247l.267,2.327A13.432,13.432,0,0,1,18.473,25.9Zm.027-9.949a2.327,2.327,0,1,1,2.327-2.327A2.328,2.328,0,0,1,18.5,15.952Zm5.8,4.841-.053-.428a4.568,4.568,0,0,0-2.728-3.637,4.332,4.332,0,1,0-7.355-3.1,4.3,4.3,0,0,0,1.31,3.1,4.529,4.529,0,0,0-2.728,3.637l-.053.428A21.841,21.841,0,0,1,9.086,7.9a19.59,19.59,0,0,0,9.467-3.343A18.439,18.439,0,0,0,27.941,7.9l.053.053A21.624,21.624,0,0,1,24.3,20.793Z" transform="translate(0)"/></g></svg>