<svg xmlns="http://www.w3.org/2000/svg" width="23" height="17.164" viewBox="0 0 23 17.164"><defs><style>.a{fill:#8f8f8f;}</style></defs><g transform="translate(-26.6 -41.3)"><g transform="translate(26.6 41.3)"><path class="a" d="M38,55.442a1.183,1.183,0,0,0,.834-.343l3.629-3.629,2.207,2.207a1.185,1.185,0,0,0,1.716,0l4.021-4.021.687.687a.763.763,0,0,0,.785.2.677.677,0,0,0,.49-.638l.49-3.58a.772.772,0,0,0-.2-.638.725.725,0,0,0-.638-.2l-3.58.49a.835.835,0,0,0-.638.49.763.763,0,0,0,.2.785l.687.687-3.139,3.188L43.346,48.92a1.185,1.185,0,0,0-1.716,0l-4.512,4.512a1.185,1.185,0,0,0,0,1.716A1.369,1.369,0,0,0,38,55.442Z" transform="translate(-31.772 -43.427)"/><path class="a" d="M48.374,55.963H29.052V42.526a1.226,1.226,0,0,0-2.452,0V57.238a1.214,1.214,0,0,0,1.226,1.226H48.374A1.214,1.214,0,0,0,49.6,57.238,1.256,1.256,0,0,0,48.374,55.963Z" transform="translate(-26.6 -41.3)"/></g></g></svg>